<svg width="24" height="22" viewBox="0 0 24 22" fill="none" xmlns="http://www.w3.org/2000/svg">
<path d="M12 8.22895C12.234 7.10895 13.547 1.99993 17.382 1.99993C19.602 1.99993 22 3.55094 22 7.00295C22 10.91 18.373 15.473 12 19.632C5.627 15.473 2 10.91 2 7.00295C2 3.51894 4.369 1.99793 6.577 1.99793C10.5 1.99793 11.722 7.12395 12 8.22895ZM0 7.00295C0 11.071 3.06 16.484 12 22C20.94 16.484 24 11.071 24 7.00295C24 -0.95908 14.352 -2.02508 12 3.26593C9.662 -1.99608 0 -1.00408 0 7.00295Z" fill="#2F3035"/>
</svg>
